<svg xmlns="http://www.w3.org/2000/svg" style="display: none;">
  <!-- Logo SVG -->
  <symbol id="logo" viewBox="0 0 300 70.3">
    <path d="M160.8 40.7v28.8h-12.1V42.4c0-6.1-3.2-10-9.1-10-7.7 0-11.2 7-11.2 12.8v24.3h-12.1V22.7H127v9.8h.3c2.4-5.7 7.2-10.4 15.7-10.4 11.6 0 17.8 7.8 17.8 18.6zm-141.7-18h15.1V32H19.1v37.5H7V32H0v-9.3h7v-3C7 7.4 15 0 26.2 0 35 0 39.9 4 39.9 4l-6 8.7s-2.3-2.6-6.3-2.6c-5.5 0-8.5 3.7-8.5 9.3v3.3zm51.1 1.5c-1.2-.6-4.7-2.2-9.1-2.2-7 0-10.8 4.8-12.6 10.7h-.3c0-2-.2-10.1-.2-10.1H37.4v46.9h12.1V46.3c0-8.4 4.9-12.7 10.1-12.7 2 0 3.6.6 4.6 1.2.6-4.2 2.6-7.9 6-10.6zm223.2 31.1 6.2 6.7c-3.6 4.7-10.4 8.3-19.9 8.3-15.6 0-25-9.8-25-23.9 0-14.1 9.3-24.1 23.7-24.1 13.7 0 21.6 9.4 21.6 22 0 3-.5 4.9-.5 4.9h-32.6c1.1 7 5.9 11.7 14.1 11.7 6.8-.1 10.5-3.2 12.4-5.6zm-26.5-13h21.6c-.1-6.2-4-10.6-10.1-10.6-6-.1-10.4 4-11.5 10.6zM113.1 69.6c-1.1.2-2.7.5-4.7.5-6.1 0-9.4-2.4-10.2-7.4-1.4 2.7-5.4 7.5-15.4 7.5C72.6 70.1 67 65 67 57.2 67 46 78.4 42.7 96.9 42.4h.8v-2.3c0-5.3-3.2-8.7-9.4-8.7-5.8 0-8.9 2.3-8.9 6.2 0 2.1.7 3.1.7 3.1l-10 3.6s-1.6-3.3-1.6-7.4c0-8.8 7.6-14.8 20.3-14.8 13.4 0 20.9 7 20.9 18.4V57c0 2.4.8 3.2 2.8 3.2.3 0 .6 0 .9-.1v9.5zM97.7 53v-4h-.8c-12.7.2-18.1 2.2-18.1 6.9 0 3.2 2.6 5 7.2 5 7.4 0 11.7-3.9 11.7-7.9zm113.4 7.6c.1-.2.1-.4.1-.4h-.1v.4zm41.2-23c-2.8-9.8-10.5-15.4-20.1-15.4-7.7 0-12.5 3.5-15.2 7.8V.1h-12.1v69.4h11.7s-1.4-9.2-1.4-9.3h.1c2.6 5.8 7.9 10 16.2 10 10.1 0 17.9-5.8 20.7-15.3-.8-2.7-1.2-5.6-1.2-8.6.1-3 .5-6 1.3-8.7zm-22.8 22.5c-8.2 0-12.5-6.5-12.5-12.5v-2.7c0-5.8 4.2-12.6 12.1-12.6 7.4 0 12 5.5 12 14 0 8.4-4.5 13.8-11.6 13.8zM199.3 55l-1-1c-4.3 1.5-9.1 1.5-13.6 0l-.9.9c1.5 4.5 1.5 9.2 0 13.6l1 1c4.3-1.5 9.1-1.5 13.6 0l.9-.9c-1.6-4.5-1.6-9.3 0-13.6zM172.9.1h-1.2c-1.8 3.7-4.8 6.7-8.5 8.5v1.2c3.7 1.9 6.7 4.9 8.5 8.5h1.2c1.8-3.7 4.8-6.7 8.5-8.5V8.6c-3.7-1.8-6.7-4.8-8.5-8.5zm5.5 22.5c-3.9 1.7-8.2 1.7-12.1 0v46.9h12.1V22.6z" />
  </symbol>
  
  <!-- Instagram Icon SVG -->
  <symbol id="instagram" viewBox="0 0 400 400">
    <path d="M249.7 200c0 27.2-22 49.2-49.2 49.2s-49.2-22-49.2-49.2 22-49.2 49.2-49.2 49.2 22 49.2 49.2Zm150.7-.2c0 54.9-.1 109.9-.4 113.3-1.2 15.8-4 26.7-9.4 37.9-10.8 22.3-30.6 38.5-54.6 44.7-8.7 2.2-16.6 3.3-30.1 3.9-4.9.3-55.4.3-105.9.3s-100.9-.2-105.9-.4c-11.6-.5-20.8-1.7-29-3.8-23.8-6.1-44-22.6-54.6-44.6C5 339.7 2.4 329.2 1 312.5c-.5-4.7-.5-29.1-.5-112.6v-65c0-47.7.4-49.6 1.8-59 2.8-19.3 10.5-35.5 23.2-48.7 7-7.2 14-12.4 23-16.8C60.1 4.6 70.8 1.9 87.9.5 92.7 0 117.1 0 200.6 0h65.1c47.8 0 49.7.4 59 1.8 19.3 2.8 35.5 10.5 48.7 23.1 7.4 7.2 12.5 14.2 17.1 23.5 5.6 11.4 8.3 22.2 9.6 38.3h-.1c.3 3.4.4 58.2.4 113.1Zm-52.2.2c0-40.1-.2-45.1-.9-60.9-.8-15.7-3.3-26.4-6.9-35.8-3.7-9.7-8.8-18-17-26.2s-16.4-13.2-26.1-17c-9.4-3.7-20.2-6.2-35.9-6.9-15.8-.7-20.8-.9-60.9-.9s-45.2.2-60.9.9c-15.7.8-26.4 3.2-35.8 6.9-9.8 3.7-18 8.8-26.2 17s-13.2 16.5-17 26.2c-3.7 9.3-6.2 20.1-6.9 35.8-.7 15.7-.9 20.8-.9 60.9s.2 45.1.9 60.9c.8 15.7 3.3 26.4 6.9 35.8 3.7 9.7 8.8 18 17 26.2s16.4 13.2 26.1 17c9.3 3.7 20.1 6.2 35.8 6.9 15.8.7 20.8.9 60.9.9s45.1-.2 60.9-.9c15.8-.8 26.5-3.2 35.9-6.9 9.7-3.7 17.9-8.8 26.1-17s13.2-16.5 17-26.2c3.7-9.3 6.2-20.1 6.9-35.8h.1c.7-15.8.9-20.8.9-60.9Zm-27.4-59.6c.7 15.6.9 20.2.9 59.7s-.2 44.1-.9 59.7c-.7 14.4-3.1 22.2-5.1 27.4-2.7 6.9-5.9 11.8-11.1 17-5.2 5.1-10.1 8.3-17 11-5.2 2-13 4.4-27.4 5.1-15.6.7-20.2.9-59.7.9s-44.1-.2-59.7-.9c-14.4-.7-22.2-3.1-27.4-5.1-6.9-2.6-11.8-5.8-17-11s-8.4-10.1-11.1-17c-2-5.2-4.4-13-5.1-27.4-.7-15.6-.8-20.2-.8-59.7s0-44.1.8-59.7c.7-14.4 3.1-22.2 5.1-27.4 2.7-6.9 5.9-11.8 11.1-17s10.1-8.4 17-11.1c5.2-2 13-4.4 27.4-5.1 13.6-.6 18.9-.8 46.4-.8h13.2c39.5 0 44.1 0 59.7.8 14.4.7 22.2 3.1 27.4 5.1 6.9 2.6 11.8 5.8 17 11 5.2 5.2 8.4 10.1 11.1 17 2 5.3 4.4 13.1 5.1 27.5Zm-44.5 59.7c0-41.9-33.9-75.9-75.8-75.9s-75.8 34-75.8 75.9 33.9 75.8 75.8 75.8 75.8-33.9 75.8-75.8Zm20.7-78.9c0-9.8-7.9-17.7-17.7-17.7s-17.7 7.9-17.7 17.7 7.9 17.7 17.7 17.7S297 131 297 121.2Z"/>
  </symbol>

  <symbol id="linkedin" viewBox="0 0 400 400">
    <path d="M399.9 400h.1V253.3c0-71.8-15.5-127-99.4-127s-67.4 22.1-78.4 43.1H221V133h-79.5v267h82.8V267.8c0-34.8 6.6-68.5 49.7-68.5s43.1 39.7 43.1 70.7v130h82.8ZM6.6 133h82.9v267H6.6V133ZM48 0C21.5 0 0 21.5 0 48s21.5 48.5 48 48.5 48-22 48-48.5S74.5 0 48 0Z"/>
  </symbol>

  <symbol id="github" viewBox="0 0 400 400">
    <path d="M370 79.4c8.8-25.6 7.8-53.6-3-78.5-24.4-7.5-80.1 31.3-80.1 31.3-47.7-13-98.1-13-145.8 0 0 0-55.8-38.8-80-31.3-10.8 24.9-11.9 52.9-3 78.5-18.7 17.6-28.7 42.5-27.3 68 0 110.9 65.4 120.3 130.2 127.5-10.6 10.4-17.1 24.2-18.5 38.9-29.5 16.7-67 6.5-83.8-22.9l-.8-1.4c-9.5-16.3-26-27.3-44.7-29.8-28.4-.4-1.9 17.8-1.9 17.8 18.9 8.7 32.1 42.2 32.1 42.2 17 51.8 98.3 34.4 98.3 34.4 0 10.6 0 28.6.1 46h144.5v-84.5c-1.7-15.2-8.5-29.6-19.6-40.6 64.8-7.1 133.2-16 133.2-127.5.4-25.9-10.6-50.7-30-68ZM33.2 273.8c-.9 1.6-2.9 2.1-4.4 1.2-.2 0-.4-.2-.5-.4-2.3-1-3.3-3-2.6-4.5 1.3-1.3 3.3-1.6 4.9-.7 2.1 1.1 3.3 3 2.6 4.4ZM45 286.6c-1.6 1.6-4.2.8-6.1-1-1.9-2.3-2.3-4.9-.7-6.1 2-1.1 4.6-.7 6.1 1 1.9 2.2 2.3 4.8.7 6Zm11.3 16.9c-1.5 1-4.6 0-6.6-2.7s-1.9-5.5 0-6.8c2.3-1.2 5.2-.4 6.4 1.9 0 .1.1.2.2.3 2 2 2 5.2 0 7.1Zm16 15.9c-1.6 2-4.9 1.6-7.5-1-2.6-2.6-3.3-5.6-1.6-7.2 2.4-1.7 5.7-1.2 7.5 1.1 2.6 2.6 3.2 5.6 1.6 7.1Zm21.5 9.4c-.7 2.3-4.2 3.3-7.2 2.3s-5.6-3.3-4.9-5.6c.7-2.3 4.2-3.3 7.2-2.6 3.5 1 5.8 3.6 4.9 5.9Zm17.9 6.2c-3.5 0-6.6-1.6-6.6-4.2s2.6-4.2 6.1-4.2 6.6 1.5 6.6 4.2-2.6 4.2-6.1 4.2Zm22.8-2.7c-3.3.7-6.6-.7-6.8-3s1.9-4.9 5.2-5.5c2.8-.8 5.7.6 6.8 3.3.5 2.1-1.7 4.6-5.2 5.2Z"/>
  </symbol>

  <symbol id="photoblog" viewBox="0 0 400 400">
    <path d="M277.6 196.4v8.4c0 .3 0 .7-.1 1 0 .3 0 .7-.1 1 0 .4 0 .7-.1 1.1 0 .3 0 .6-.1 1 0 .4-.1.7-.2 1.1 0 .3 0 .6-.2.9 0 .4-.1.8-.2 1.2 0 .3 0 .5-.2.8 0 .5-.2.9-.3 1.4 0 .2 0 .4-.1.6v.4c0 .2-.1.4-.2.6-.1.4-.2.9-.3 1.3 0 .3-.1.5-.2.8l-.3 1.2c0 .3-.2.6-.3.9-.1.4-.2.7-.3 1.1 0 .3-.2.6-.3.9-.1.3-.2.7-.3 1-.1.3-.2.6-.3 1-.1.3-.2.6-.3 1-.1.3-.3.7-.4 1-.1.3-.2.6-.4.9-.1.3-.3.7-.4 1-.1.3-.2.6-.3.8-.2.4-.3.7-.5 1.1-.1.3-.2.5-.3.8-.2.4-.4.8-.6 1.3 0 .2-.2.4-.3.6v.4c0 .2-.2.4-.3.6l-.6 1.2c-.1.2-.3.5-.4.7-.2.4-.4.7-.6 1.1-.1.3-.3.5-.4.8-.2.3-.4.7-.6 1-.2.3-.3.6-.5.8l-.6.9c-.2.3-.4.6-.5.9l-.6.9-.6.9c-.2.3-.4.5-.5.8l-.6.9c-.2.3-.4.5-.5.8-.2.3-.5.7-.7 1-.2.2-.3.4-.5.7-.3.4-.6.7-.8 1.1-.1.2-.3.4-.4.5 0 0 0 .1-.1.2 0 0 0 .1-.1.2-.1.2-.3.3-.4.5-.3.4-.6.7-.9 1.1-.2.2-.4.4-.5.6-.3.3-.5.6-.8.9-.2.2-.4.5-.6.7-.3.3-.5.6-.8.8-.2.2-.4.5-.7.7-.2.3-.5.5-.7.8l-.7.7-.7.7c-.3.2-.5.5-.8.7l-.7.7c-.3.3-.6.5-.8.8-.2.2-.5.4-.7.6-.3.3-.6.5-.9.8-.2.2-.4.4-.6.5-.4.3-.7.6-1.1.9-.2.1-.3.3-.5.4 0 0-.1 0-.2.1 0 0-.1 0-.2.1-.2.1-.3.3-.5.4-.4.3-.7.6-1.1.8-.2.2-.4.3-.7.5-.3.2-.7.5-1 .7-.2.2-.5.4-.8.5l-.9.6c-.3.2-.5.4-.8.5l-.9.6c-.3.2-.6.4-.9.5-.3.2-.6.4-.9.5-.3.2-.6.4-.9.5-.3.2-.6.3-.9.5-.3.2-.7.4-1 .6-.3.1-.5.3-.8.4-.4.2-.7.4-1.1.6-.2.1-.5.3-.7.4l-1.2.6c-.2 0-.4.2-.6.3h-.4c-.2 0-.4.2-.6.3-.4.2-.8.4-1.3.6-.3.1-.5.2-.8.3-.4.2-.8.3-1.1.5l-.9.3c-.4.1-.7.3-1.1.4l-.9.3c-.3.1-.7.3-1 .4-.3.1-.6.2-1 .3-.3.1-.7.2-1 .3-.3.1-.7.2-1 .3l-.9.3c-.4.1-.7.2-1.1.3-.3 0-.6.2-.9.3l-1.2.3c-.3 0-.5.1-.8.2-.4.1-.9.2-1.3.3-.2 0-.4.1-.7.2h-.4c-.2 0-.4 0-.6.1-.5 0-.9.2-1.4.3-.3 0-.5.1-.8.2-.4 0-.8.2-1.2.2-.3 0-.6 0-.9.1-.4 0-.7.1-1.1.2-.3 0-.6 0-1 .1-.4 0-.7 0-1.1.1-.3 0-.7 0-1 .1-.3 0-.7 0-1 .1H185.8c-.3 0-.7 0-1-.1-.3 0-.7 0-1-.1-.4 0-.7 0-1.1-.1-.3 0-.6 0-1-.1-.4 0-.7-.1-1.1-.2-.3 0-.6 0-.9-.1-.4 0-.8-.1-1.2-.2-.3 0-.5 0-.8-.2-.5 0-.9-.2-1.4-.3-.2 0-.4 0-.6-.1h-.4c-.2 0-.4-.1-.7-.2-.4-.1-.9-.2-1.3-.3-.3 0-.5-.1-.8-.2l-1.2-.3c-.3 0-.6-.2-.9-.3-.4-.1-.7-.2-1.1-.3-.3 0-.6-.2-.9-.3-.3-.1-.7-.2-1-.3-.3-.1-.7-.2-1-.3-.3-.1-.6-.2-1-.3-.3-.1-.7-.2-1-.4l-.9-.3c-.4-.1-.7-.3-1.1-.4l-.9-.3c-.4-.2-.8-.3-1.1-.5-.3-.1-.5-.2-.8-.3-.4-.2-.8-.4-1.3-.6-.2 0-.4-.2-.6-.3h-.4c-.2 0-.4-.2-.6-.3l-1.2-.6c-.2-.1-.5-.3-.7-.4-.4-.2-.7-.4-1.1-.6-.3-.1-.5-.3-.8-.4-.3-.2-.7-.4-1-.6-.3-.2-.6-.3-.9-.5-.3-.2-.6-.4-.9-.5-.3-.2-.6-.4-.9-.5-.3-.2-.6-.4-.9-.5l-.9-.6c-.3-.2-.5-.4-.8-.5l-.9-.6c-.3-.2-.5-.3-.8-.5-.3-.2-.7-.5-1-.7-.2-.2-.4-.3-.7-.5-.4-.3-.7-.6-1.1-.8-.2-.1-.3-.3-.5-.4 0 0-.1 0-.2-.1 0 0-.1 0-.2-.1-.2-.1-.3-.3-.5-.4-.4-.3-.7-.6-1.1-.9-.2-.2-.4-.4-.6-.5-.3-.3-.6-.5-.9-.8-.2-.2-.5-.4-.7-.6-.3-.3-.6-.5-.8-.8-.2-.2-.5-.4-.7-.7-.3-.2-.5-.5-.8-.7l-.7-.7-.7-.7c-.3-.3-.5-.5-.7-.8-.2-.2-.4-.5-.7-.7-.3-.3-.5-.6-.8-.8-.2-.2-.4-.4-.6-.7-.3-.3-.5-.6-.8-.9-.2-.2-.4-.4-.5-.6-.3-.4-.6-.7-.9-1.1-.1-.2-.3-.3-.4-.5 0 0 0-.1-.1-.2 0 0 0-.1-.1-.2-.1-.2-.3-.3-.4-.5-.3-.4-.6-.7-.8-1.1-.2-.2-.3-.4-.5-.7-.2-.3-.5-.6-.7-1-.2-.2-.4-.5-.5-.8l-.6-.9c-.2-.3-.4-.5-.5-.8l-.6-.9-.6-.9c-.2-.3-.4-.6-.5-.9l-.6-.9c-.2-.3-.3-.6-.5-.8-.2-.3-.4-.7-.6-1-.1-.3-.3-.5-.4-.8-.2-.4-.4-.7-.6-1.1-.1-.2-.3-.5-.4-.7l-.6-1.2c0-.2-.2-.4-.3-.6v-.4c0-.2-.2-.4-.3-.6-.2-.4-.4-.8-.6-1.3-.1-.2-.2-.5-.3-.8-.2-.4-.3-.7-.5-1.1-.1-.3-.2-.6-.3-.8-.1-.3-.3-.7-.4-1-.1-.3-.2-.6-.4-.9-.1-.3-.3-.7-.4-1-.1-.3-.2-.6-.3-1-.1-.3-.2-.6-.3-1-.1-.3-.2-.7-.3-1l-.3-.9c-.1-.4-.2-.7-.3-1.1 0-.3-.2-.6-.3-.9l-.3-1.2c0-.3-.1-.5-.2-.8-.1-.4-.2-.9-.3-1.3 0-.2-.1-.4-.2-.6v-.4c0-.2 0-.4-.1-.6 0-.4-.2-.9-.3-1.4 0-.3-.1-.5-.2-.8 0-.4-.2-.8-.2-1.2 0-.3-.1-.6-.2-.9 0-.4-.1-.7-.2-1.1 0-.3 0-.6-.1-1 0-.4 0-.7-.1-1.1 0-.3 0-.7-.1-1 0-.3 0-.7-.1-1V188c0-.3 0-.7.1-1 0-.3 0-.7.1-1 0-.4 0-.7.1-1.1 0-.3 0-.6.1-1 0-.4.1-.7.2-1.1 0-.3 0-.6.1-.9 0-.4.1-.8.2-1.2 0-.3 0-.5.2-.8 0-.5.2-.9.3-1.4 0-.2 0-.4.1-.6v-.4c0-.2.1-.4.2-.6.1-.4.2-.9.3-1.3 0-.3.1-.5.2-.8l.3-1.2c0-.3.2-.6.3-.9.1-.4.2-.7.3-1.1 0-.3.2-.6.3-.9.1-.3.2-.7.3-1 .1-.3.2-.6.3-1 .1-.3.2-.6.3-1 .1-.3.3-.7.4-1 .1-.3.2-.6.4-.9.1-.3.3-.7.4-1 .1-.3.2-.6.3-.8.2-.4.3-.7.5-1.1.1-.3.2-.5.3-.8.2-.4.4-.8.6-1.3 0-.2.2-.4.3-.6v-.4c0-.2.2-.4.3-.6l.6-1.2c.1-.2.3-.5.4-.7.2-.4.4-.7.6-1.1.1-.3.3-.5.4-.8.2-.3.4-.7.6-1 .2-.3.3-.6.5-.8l.6-.9c.2-.3.4-.6.5-.9l.6-.9.6-.9c.2-.3.4-.5.5-.8l.6-.9c.2-.3.4-.5.5-.8.2-.3.5-.7.7-1 .2-.2.3-.4.5-.7.3-.4.6-.7.8-1.1.1-.2.3-.4.4-.5 0 0 0-.1.1-.2s0-.1.1-.2c.1-.2.3-.3.4-.5.3-.4.6-.7.9-1.1.2-.2.4-.4.5-.6.3-.3.5-.6.8-.9.2-.2.4-.5.6-.7.3-.3.5-.6.8-.8l.7-.7c.2-.3.5-.5.7-.8l.7-.7.7-.7c.3-.2.5-.5.8-.7.2-.2.5-.4.7-.7.3-.3.6-.5.8-.8.2-.2.5-.4.7-.6.3-.3.6-.5.9-.8.2-.2.4-.4.6-.5.4-.3.7-.6 1.1-.9.2-.1.3-.3.5-.4 0 0 .1 0 .2-.1 0 0 .1 0 .2-.1.2-.1.3-.3.5-.4.4-.3.7-.6 1.1-.8.2-.2.4-.3.7-.5.3-.2.7-.5 1-.7.2-.2.5-.3.7-.5l.9-.6c.3-.2.5-.4.8-.5l.9-.6c.3-.2.6-.4.9-.5.3-.2.6-.4.9-.5.3-.2.6-.4.9-.5.3-.2.6-.3.8-.5.3-.2.7-.4 1-.6.3-.1.5-.3.8-.4.4-.2.7-.4 1.1-.6.2-.1.5-.3.7-.4l1.2-.6c.2 0 .4-.2.6-.3h.4c.2 0 .4-.2.6-.3.4-.2.8-.4 1.3-.6.3-.1.5-.2.8-.3.4-.2.7-.3 1.1-.5l.9-.3c.3-.1.7-.3 1-.4l.9-.3c.3-.1.7-.3 1-.4.3-.1.6-.2 1-.3.3-.1.6-.2 1-.3.3-.1.7-.2 1-.3.3 0 .6-.2.9-.3.4-.1.7-.2 1.1-.3.3 0 .6-.2.9-.3l1.2-.3c.3 0 .5-.1.8-.2.4-.1.9-.2 1.3-.3.2 0 .4-.1.6-.2h.4c.2 0 .4 0 .6-.1.5 0 .9-.2 1.4-.3.3 0 .5-.1.8-.2.4 0 .8-.2 1.2-.2.3 0 .6 0 .9-.1.4 0 .7-.1 1.1-.2.3 0 .7 0 1-.1.4 0 .7 0 1.1-.1.3 0 .7 0 1-.1.3 0 .7 0 1-.1H202.1c.3 0 .7 0 1 .1.3 0 .7 0 1 .1.4 0 .7 0 1.1.1.3 0 .7 0 1 .1.4 0 .7.1 1.1.2.3 0 .6 0 .9.1.4 0 .8.1 1.2.2.3 0 .5 0 .8.2.5 0 .9.2 1.4.3.2 0 .4 0 .6.1h.4c.2 0 .4.1.6.2.5.1.9.2 1.3.3.3 0 .5.1.8.2l1.2.3c.3 0 .6.2.9.3.4.1.7.2 1.1.3.3 0 .6.2.9.3.3.1.7.2 1 .3.3.1.6.2 1 .3.3.1.6.2 1 .3.3.1.7.2 1 .4l.9.3c.4.1.7.3 1 .4l.9.3c.4.2.7.3 1.1.5.3.1.5.2.8.3.4.2.8.4 1.3.6.2 0 .4.2.6.3h.4c.2 0 .4.2.6.3l1.2.6c.2.1.5.3.7.4.4.2.7.4 1.1.6.3.1.5.3.8.4.3.2.7.4 1 .6.3.2.6.3.8.5.3.2.6.4.9.5.3.2.6.4.9.5.3.2.6.4.9.5l.9.6c.3.2.5.4.8.5l.9.6c.2.2.5.3.7.5.3.2.7.5 1 .7.2.2.4.3.7.5.4.3.7.6 1.1.8.2.1.3.3.5.4 0 0 .1 0 .2.1 0 0 .1 0 .2.1.2.1.3.3.5.4.4.3.7.6 1.1.9.2.2.4.4.6.5.3.3.6.5.9.8.2.2.5.4.7.6.3.3.6.5.8.8.2.2.5.4.7.7.3.2.5.5.8.7l.7.7.7.7c.3.3.5.5.7.8l.7.7c.3.3.5.6.8.8.2.2.4.5.6.7.3.3.5.6.8.9.2.2.4.4.5.6.3.4.6.7.9 1.1.1.2.3.3.4.5 0 0 0 .1.1.2s0 .1.1.2c.1.2.3.4.4.5.3.4.6.7.8 1.1.2.2.3.4.5.7.2.3.5.6.7 1 .2.2.4.5.5.8l.6.9c.2.3.4.5.5.8l.6.9.6.9c.2.3.4.6.5.9l.6.9c.2.3.3.6.5.8.2.3.4.7.6 1 .2.3.3.5.4.8.2.4.4.7.6 1.1.1.2.3.5.4.7l.6 1.2c0 .2.2.4.3.6v.4c0 .2.2.4.3.6.2.4.4.8.6 1.3.1.2.2.5.3.8.2.4.3.7.5 1.1.1.3.2.6.3.8.1.3.3.7.4 1 .1.3.2.6.4.9.1.3.3.7.4 1 .1.3.2.6.3 1 .1.3.2.6.3 1 .1.3.2.7.3 1l.3.9c.1.4.2.7.3 1.1 0 .3.2.6.3.9l.3 1.2c0 .3.1.5.2.8.1.4.2.9.3 1.3 0 .2.1.4.2.6v.4c0 .2 0 .4.1.6 0 .4.2.9.3 1.4 0 .3.1.5.2.8 0 .4.2.8.2 1.2 0 .3 0 .6.1.9 0 .4.1.7.2 1.1 0 .3 0 .6.1 1 0 .4 0 .7.1 1.1 0 .3 0 .7.1 1 0 .3 0 .7.1 1V196.4Zm-60.3-93.7c0 .5.1 1.1.2 1.6.2 0 .4 0 .5.1.5.1.9.2 1.4.4.3 0 .7.2 1 .3.4.1.8.2 1.2.4.4.1.7.2 1.1.3.4.1.8.2 1.2.4.4.1.7.3 1.1.4.4.1.7.3 1.1.4.4.1.8.3 1.1.4.2 0 .5.2.7.3 1-.7 2.1-1.8 3.2-3.4 7.2-10 8.5-21.3 3.9-34.7-2.6-7.6-7.6-13.5-13.4-16.4 4.2 10.8 2.4 21.7-5.2 32.6-.6.9-1 2.1-.9 2.8.4 4.6 1.1 9.2 1.7 14ZM97.7 191.5v-3.4c0-.4 0-.8.1-1.2 0-.4 0-.8.1-1.2 0-.4 0-.8.1-1.2 0-.4.1-.8.2-1.2 0-.3 0-.5.1-.8-.9-.8-2.2-1.6-4.1-2.4-11.4-4.8-22.8-3.5-34.9 3.9-6.9 4.2-11.6 10.4-13.1 16.6 9.7-6.4 20.8-7.2 33.2-2.2 1 .4 2.3.5 3 .3 4.4-1.5 8.8-3.1 13.4-4.8l1.5-.6v-1.9Zm23.1-82c.3 1 1 2.1 1.6 2.5 3.9 2.5 7.9 4.9 12.1 7.4.5.3.9.6 1.4.8.1-.1.3-.2.4-.3.4-.3.7-.6 1.1-.8.3-.2.6-.4.8-.6.4-.2.7-.5 1.1-.7l.9-.6c.3-.2.7-.5 1-.7.3-.2.7-.4 1-.6.3-.2.7-.4 1-.6.3-.2.7-.4 1-.6.2-.1.5-.3.7-.4.1-1.2-.1-2.7-.7-4.6-3.4-11.9-11.5-19.9-24.8-24.7-7.6-2.7-15.4-2.5-21.3.2 11.1 3.5 18.6 11.7 22.4 24.4Zm16.6-23.8c6.5 6.1 13.6 13.4 16.6 24h.2c.3-.1.6-.3.9-.4.4-.2.8-.4 1.3-.5.3-.1.6-.3 1-.4.4-.2.8-.3 1.2-.5.3-.1.7-.3 1-.4.4-.1.8-.3 1.1-.4.4-.1.7-.3 1.1-.4.4-.1.7-.3 1.1-.4.4-.1.8-.3 1.2-.4.4-.1.7-.2 1.1-.3.4-.1.8-.2 1.2-.4.3 0 .7-.2 1-.3.4-.1.9-.2 1.4-.4.3 0 .6-.2.9-.2.5-.1 1-.3 1.5-.4.2 0 .5-.1.7-.2h.4c.2 0 .5-.1.7-.2l1.5-.3c.3 0 .6-.1.9-.2.5 0 .9-.2 1.4-.3.3 0 .7-.1 1-.2.4 0 .8-.1 1.3-.2.4 0 .7-.1 1.1-.2.4 0 .8-.1 1.2-.2.4 0 .8 0 1.2-.1.4 0 .8 0 1.2-.1.4 0 .8 0 1.2-.1H197.5c1.5-14.5-4.9-26.3-17.8-32.7-1.7-.8-3.3-1.6-5-2.5l-3.2-1.6c-8.9-4.4-13.1-11.2-12.9-21 .4-15-5.2-27.4-16.7-37-3.1-2.6-6.9-4.5-10.8-6.6 8.3 13.4 8.1 27.4-.6 42.7-9.8 17.3-7.9 29.3 6.7 43ZM292 146.5c-3.3 3.2-6.6 6.6-10 10.1-.4.4-.8.8-1.1 1.2 0 .2.1.3.2.5.2.4.4.8.6 1.3.1.3.3.6.4 1 .2.4.3.8.5 1.2.1.3.3.7.4 1 .1.4.3.8.4 1.1.1.4.3.7.4 1.1.1.4.3.7.4 1.1.1.4.3.8.4 1.1 0 .3.2.5.2.8 1.2.4 2.7.5 4.7.4 12.4-.6 22.1-6.7 29.8-18.5 4.3-6.7 5.9-14.3 4.5-20.6-5.9 9.9-15.6 15.4-28.9 16.3-1.1 0-2.3.5-2.8 1ZM308.5 265c8-.8 15-4.3 19.1-9.4-11.5 1.6-21.9-2.5-30.9-12.3-.7-.8-1.8-1.4-2.6-1.5-4.6-.6-9.3-1-14.2-1.5-.5 0-1.1 0-1.6-.1 0 .2-.2.3-.3.5-.2.4-.4.8-.7 1.2-.2.3-.3.6-.5.9-.2.4-.4.7-.6 1.1-.2.3-.4.6-.6 1-.2.3-.4.7-.6 1-.2.3-.4.7-.6 1-.2.3-.4.7-.6 1-.2.3-.4.7-.7 1-.1.2-.3.4-.4.7.4 1.1 1.3 2.4 2.6 3.9 8.2 9.2 19 13 33.2 11.5Zm-71.3-153.2c.3.1.6.3.8.4l1.2.6c.3.2.6.3.9.5.4.2.7.4 1.1.6.3.2.6.4 1 .6.4.2.7.4 1 .6.3.2.7.4 1 .6.3.2.7.4 1 .6.3.2.7.4 1 .7l.9.6c.4.2.7.5 1.1.7.3.2.6.4.8.6.4.3.8.5 1.1.8.3.2.5.4.8.6.4.3.8.6 1.3 1 .2.2.4.3.6.5 0 0 .1 0 .2.1 0 0 .1 0 .2.1.2.2.4.3.6.5.4.3.8.7 1.2 1 .2.2.5.4.7.6.4.3.7.6 1.1.9.3.2.5.5.8.7.3.3.6.6 1 .9l.8.8c.3.3.6.6.9.8.3.3.6.5.8.8s.6.5.8.8c.3.3.6.6.8.9l.8.8.9.9c.2.3.5.5.7.8.3.3.6.7.9 1 .2.2.4.5.6.7.3.4.7.8 1 1.2.2.2.3.4.5.6 0 0 0 .1.1.2s0 .1.1.2c.2.2.3.4.5.6.3.4.6.8 1 1.2.2.3.4.5.6.8.2.2.4.5.6.8 12.4-7.8 17.7-20.2 14.7-34.3l-1.2-5.4-.8-3.5c-2.1-9.7.6-17.2 8.5-23.1 12.1-9 18.4-21.1 18.7-36 .1-4.1-.7-8.2-1.6-12.5-5.4 14.8-16.5 23.3-34 26.1-19.7 3.2-28 12.2-29.7 32-.7 8.9-2.1 18.9-8.6 27.8h.2Zm121 58.1c-14.8-13.3-27.1-14.2-43.7-3.1-7.4 5-16.2 10.2-27.3 10.7v.2c0 .3.1.6.2.9 0 .5.2.9.3 1.4 0 .3.1.7.2 1 0 .4.1.8.2 1.3 0 .4.1.7.2 1.1 0 .4.1.8.2 1.2 0 .4 0 .8.1 1.2 0 .4 0 .8.1 1.2 0 .4 0 .8.1 1.2v16.4c0 .4 0 .8-.1 1.2 0 .4 0 .8-.1 1.2 0 .4 0 .8-.1 1.2 0 .4-.1.8-.2 1.2 0 .4 0 .7-.2 1.1 0 .4-.1.8-.2 1.3 0 .3-.1.7-.2 1 0 .5-.2.9-.3 1.4 0 .3-.1.6-.2.9l-.3 1.5c0 .2-.1.5-.2.7v.4c0 .2-.1.5-.2.7-.1.5-.2 1-.4 1.5 0 .3-.2.6-.2.9 0 .3-.2.6-.2.9 13.9 4.7 26.9 1.2 36.1-10 1.2-1.4 2.4-2.9 3.5-4.3l2.2-2.8c6.3-7.7 14-10.2 23.5-7.8 14.6 3.7 28.1 1.1 40-7.9 3.3-2.5 6-5.6 8.9-9-15 5-28.7 1.7-41.8-10.1ZM191 291.4h-6c-.4 0-.8 0-1.2-.1-.4 0-.8 0-1.2-.1-.4 0-.8 0-1.2-.1-.4 0-.8-.1-1.2-.2-.4 0-.7 0-1.1-.2-.4 0-.8-.1-1.3-.2-.3 0-.7-.1-1-.2-.5 0-.9-.2-1.4-.3-.3 0-.6-.1-.9-.2l-1.5-.3c-.2 0-.5-.1-.7-.2h-.4c-.2 0-.5-.1-.7-.2-.5-.1-1-.2-1.5-.4-.3 0-.6-.2-.9-.2-.4-.1-.9-.2-1.3-.4-.3 0-.7-.2-1-.3-.4-.1-.8-.2-1.2-.4-.4-.1-.7-.2-1.1-.3-.4-.1-.8-.2-1.2-.4-.4-.1-.7-.3-1.1-.4-.4-.1-.7-.3-1.1-.4-.4-.1-.8-.3-1.1-.4-.3-.1-.7-.3-1-.4-.4-.2-.8-.3-1.2-.5-.3-.1-.6-.3-1-.4-.4-.2-.9-.4-1.3-.6-.3-.1-.6-.2-.9-.4-.5-.2-1-.4-1.4-.7-.2-.1-.5-.2-.7-.3h-.2s-.1 0-.2-.1c-.2-.1-.4-.2-.7-.3-.5-.2-.9-.5-1.4-.7-.3-.1-.6-.3-.8-.4-.3-.1-.6-.3-.8-.4-7.7 12.4-7.1 25.8 1.8 37.2 1.1 1.5 2.3 2.9 3.5 4.4l2.2 2.8c6.1 7.8 6.9 15.8 2.4 24.5-6.9 13.3-7.3 26.9-1.1 40.5 1.7 3.7 4.2 7.1 6.9 10.6-1.6-15.6 4.7-28.1 19.2-38.2 16.4-11.4 19.9-23 12.7-41.6-3.2-8.3-6.4-17.9-4.4-28.8Zm29.7 14.5c.2-1 0-2.3-.4-2.9-2.4-3.9-5-7.8-7.7-11.9-.3-.4-.6-.9-.9-1.3-.2 0-.4 0-.5.1-.5 0-.9.2-1.4.3-.3 0-.7.1-1 .2-.4 0-.8.1-1.3.2-.4 0-.7.1-1.1.2-.4 0-.8.1-1.2.2-.4 0-.8 0-1.2.1-.4 0-.8 0-1.2.1-.4 0-.8 0-1.2.1h-.8c-.6 1-1.1 2.5-1.4 4.5-2.2 12.1 1.6 22.9 11.6 32.9 5.7 5.7 12.7 8.9 19.2 9-8.5-7.9-11.7-18.5-9.6-31.6ZM33.2 149.2c7.5 18.4 18.2 24.4 38 21.6 8.9-1.3 19-2.2 29.2 2.1v-.2c0-.3.2-.6.2-.9.1-.4.2-.9.4-1.3 0-.3.2-.7.3-1 .1-.4.2-.8.4-1.2.1-.4.2-.7.3-1.1.1-.4.2-.8.4-1.1.1-.4.3-.7.4-1.1.1-.4.3-.7.4-1.1.1-.4.3-.8.4-1.1.1-.3.3-.7.4-1 .2-.4.3-.8.5-1.2.1-.3.3-.6.4-1 .2-.4.4-.8.6-1.3.1-.3.2-.6.4-.9.2-.5.4-1 .7-1.4.1-.2.2-.5.3-.7v-.2s0-.1.1-.2c.1-.2.2-.4.3-.7.2-.5.5-.9.7-1.4.1-.3.3-.5.4-.8.2-.4.4-.8.7-1.2.2-.3.3-.6.5-.9.2-.4.4-.7.6-1.1.2-.3.4-.6.6-1 .2-.3.4-.7.6-1 .2-.3.4-.7.6-1 .2-.3.4-.7.6-1 .2-.3.4-.7.7-1l.6-.9c.2-.4.5-.7.7-1l.6-.9c.3-.4.5-.7.8-1.1.2-.3.4-.5.6-.8.3-.4.6-.8 1-1.2.2-.2.3-.4.5-.6 0 0 0-.1.1-.2s0-.1.1-.2c.2-.2.3-.4.5-.6.3-.4.7-.8 1-1.2.2-.2.4-.5.6-.7.2-.2.4-.5.6-.7-10.5-10.2-23.8-12.7-36.9-6.6l-5.1 2.4-3.2 1.5c-9 4.2-17 3.2-24.6-3.1-11.5-9.7-24.8-13.1-39.5-10.1-4 .8-7.9 2.5-11.9 4.3 15.7 1.9 26.6 10.8 33.2 27.1ZM317 307.8c1.3-19.8-5.7-29.8-24.8-35.8-8.6-2.7-18.1-6.2-25.4-14.5l-.1.1c-.2.2-.4.5-.6.7-.3.4-.6.7-.9 1.1-.2.3-.5.5-.7.8-.3.3-.6.6-.9 1l-.8.8-.9.9-.8.8-.8.8c-.3.3-.6.6-.9.8l-.8.8c-.3.3-.6.6-1 .9-.3.2-.5.5-.8.7-.3.3-.7.6-1.1.9-.2.2-.5.4-.7.6-.4.3-.8.7-1.2 1-.2.2-.4.3-.6.5 0 0-.1 0-.2.1 0 0-.1 0-.2.1-.2.2-.4.3-.6.5-.4.3-.8.6-1.3 1-.2.2-.5.4-.8.6-.4.3-.8.6-1.1.8l-.9.6c-.4.2-.7.5-1.1.7l-.9.6c-.3.2-.7.5-1 .7-.3.2-.7.4-1 .6-.3.2-.7.4-1 .6-.3.2-.7.4-1 .6-.3.2-.6.4-1 .6-.4.2-.7.4-1.1.6-.3.2-.6.3-.9.5-.4.2-.8.4-1.2.7-.3.1-.6.3-.8.4-.5.2-.9.5-1.4.7-.2.1-.4.2-.7.3 0 0-.1 0-.2.1h-.2c-.2.1-.5.2-.7.3-.5.2-1 .4-1.4.7-.3.1-.6.2-.9.4-.3.1-.6.2-.9.4 5 13.7 15.9 21.6 30.4 21.8h9.2c10 .1 16.8 4.5 20.8 13.4 6.2 13.7 16.7 22.5 31.2 26.1 4 1 8.2 1.1 12.6 1.3-13.3-8.5-19.2-21.2-18.1-38.7Zm-186.1-39.3c-.4-.3-.7-.6-1.1-.9-.3-.2-.5-.5-.8-.7-.3-.3-.6-.6-1-.9l-.8-.8c-.3-.3-.6-.6-.9-.8-.3-.3-.6-.5-.8-.8s-.6-.5-.8-.8l-.9-.9c-.2-.2-.4-.4-.5-.6-1.2.2-2.6.7-4.4 1.7-10.9 5.9-17 15.5-18.7 29.5-1 7.9.9 15.4 5 20.5 1-11.5 7.3-20.6 18.9-27.2.9-.5 1.8-1.4 2.1-2.1 1.6-4.3 3.1-8.7 4.6-13.4.2-.5.3-1 .5-1.5-.1-.1-.3-.2-.4-.4ZM117 253.8l-.1-.1c-.2-.2-.4-.5-.6-.8-.3-.4-.6-.7-.8-1.1l-.6-.9c-.2-.3-.5-.7-.7-1l-.6-.9c-.2-.3-.4-.7-.7-1-.2-.3-.4-.7-.6-1-.2-.3-.4-.7-.6-1-.2-.3-.4-.7-.6-1-.2-.3-.4-.6-.6-1-.2-.4-.4-.7-.6-1.1-.2-.3-.3-.6-.5-.9-.2-.4-.4-.8-.7-1.2-.1-.3-.3-.5-.4-.8-.2-.5-.5-.9-.7-1.4-.1-.2-.2-.4-.3-.7 0 0 0-.1-.1-.2v-.2c-.1-.2-.2-.5-.3-.7-.2-.5-.4-.9-.7-1.4-.1-.3-.3-.6-.4-.9-.2-.4-.4-.8-.6-1.3-.1-.3-.3-.6-.4-1-.2-.4-.3-.8-.5-1.2-.1-.3-.3-.7-.4-1-.1-.4-.3-.8-.4-1.1-.1-.4-.3-.7-.4-1.1-.1-.4-.3-.7-.4-1.1-.1-.4-.3-.8-.4-1.1-.1-.4-.2-.7-.3-1.1-.1-.4-.2-.8-.4-1.2 0-.3-.2-.7-.3-1-.1-.4-.2-.9-.4-1.3 0-.3-.2-.6-.2-.9-.1-.5-.3-1-.4-1.5 0-.2-.1-.5-.2-.7v-.4c0-.2-.1-.5-.2-.7l-.3-1.5c0-.3-.1-.6-.2-.9 0-.3-.1-.6-.2-.9-14.6 1.7-24.8 10.6-28.2 24.5-.4 1.8-.9 3.6-1.3 5.4l-.8 3.4c-2.3 9.6-8.1 15.2-17.7 17.1-14.8 2.9-25.8 11.1-32.6 24.4-1.9 3.6-2.9 7.7-4.1 11.9 11.3-11 25.1-13.9 42-8.9 19.2 5.6 30.6 1.1 40.7-16.1 4.5-7.7 10.2-16.1 19.9-21.4Z"/>
  </symbol>
</svg>
